<svg xmlns="http://www.w3.org/2000/svg" width="432" height="512" viewBox="0 0 432 512">
  <g id="add-to-cart" transform="translate(-40)">
    <path id="Path_34" data-name="Path 34" d="M472,452a20,20,0,0,1-20,20H432v20a20,20,0,0,1-40,0V472H372a20,20,0,0,1,0-40h20V412a20,20,0,0,1,40,0v20h20A20,20,0,0,1,472,452Zm0-312V332a20,20,0,0,1-40,0V160H392v60a20,20,0,0,1-40,0V160H160v60a20,20,0,0,1-40,0V160H80V472H292a20,20,0,0,1,0,40H60a20,20,0,0,1-20-20V140a20,20,0,0,1,20-20h60.946C128.891,52.523,186.423,0,256,0S383.109,52.523,391.054,120H452A20,20,0,0,1,472,140ZM350.659,120a96,96,0,0,0-189.318,0Z" fill="#fff"/>
  </g>
</svg>
